<svg height="512pt" viewBox="0 0 512 512" width="512pt" xmlns="http://www.w3.org/2000/svg"><path d="m440.601562 36.699219v253.800781l-18.601562 40.5h-331l-14.398438-24.902344v-283.796875l14.398438-22.300781h331zm0 0" fill="#5b5555"/><path d="m440.601562 36.699219v253.800781l-18.601562 40.5h-166v-331h166zm0 0" fill="#463f3f"/><path d="m0 0v331h91v-331zm61 31v30h-31v-30zm-31 150v-30h31v30zm31 30v30h-31v-30zm-31-90v-30h31v30zm0 180v-30h31v30zm0 0" fill="#766e6e"/><path d="m422 0v331h90v-331zm60 31v30h-30v-30zm-30 150v-30h30v30zm30 30v30h-30v-30zm-30-90v-30h30v30zm0 180v-30h30v30zm0 0" fill="#5b5555"/><path d="m353.5 436.601562-30 14.398438h-127.5l-30-16.199219 30-43.800781c0-16.5 13.5-30 30-30h67.5c16.5 0 30 13.5 30 30zm0 0" fill="#cc2e43"/><path d="m68.5 391v60h127.5v-60c0-16.570312-13.429688-30-30-30h-67.5c-16.570312 0-30 13.429688-30 30zm0 0" fill="#cc2e43"/><path d="m353.5 436.601562-30 14.398438h-67.5v-90h37.5c16.5 0 30 13.5 30 30zm0 0" fill="#8e1e2c"/><path d="m422 361h-68.5c-16.570312 0-30 13.429688-30 30v60h128.5v-60c0-16.570312-13.429688-30-30-30zm0 0" fill="#8e1e2c"/><path d="m256 108.101562-45-30v175.796876l45-30 87-57.898438zm0 0" fill="#f2f6fc"/><path d="m256 451-30 44.742188 30 16.257812h127.5l30-14.371094-30-46.628906c0-16.570312-13.429688-30-30-30h-67.5c-16.570312 0-30 13.429688-30 30zm0 0" fill="#ff8856"/><path d="m343 166-87 57.898438v-115.796876zm0 0" fill="#dce1eb"/><path d="m0 451v61h128.5l30-23.511719-30-37.488281c0-16.570312-13.429688-30-30-30h-68.5c-16.570312 0-30 13.429688-30 30zm0 0" fill="#ff8856"/><g fill="#ff4949"><path d="m128.5 451v61h127.5v-61c0-16.570312-13.429688-30-30-30h-67.5c-16.570312 0-30 13.429688-30 30zm0 0"/><path d="m482 421h-68.5c-16.570312 0-30 13.429688-30 30v61h128.5v-61c0-16.570312-13.429688-30-30-30zm0 0"/></g></svg>