<svg height="512pt" viewBox="0 0 512 511" width="512pt" xmlns="http://www.w3.org/2000/svg"><path d="m53.332031 276.230469v53.335937c0 17.671875 14.328125 32 32 32 17.675781 0 32-14.328125 32-32v-53.335937zm0 0" fill="#0093fd"/><path d="m394.667969 276.230469v53.335937c0 17.671875 14.324219 32 32 32 17.671875 0 32-14.328125 32-32v-53.335937zm0 0" fill="#006efd"/><path d="m207.296875 123.863281-207.296875 124.378907v73.109374h237.414062zm0 0" fill="#efe2dd"/><path d="m304.703125 123.863281-30.117187 197.488281h237.414062v-73.109374zm0 0" fill="#e1d3ce"/><path d="m210.742188 359.804688-87.074219 119.09375v32h132.332031zm0 0" fill="#efe2dd"/><path d="m301.257812 359.804688-45.257812 151.09375h132.332031v-32zm0 0" fill="#e1d3ce"/><path d="m343.453125 110.609375c-.058594-70.695313-78.070313-105.964844-81.394531-107.433594l-6.058594-2.675781-10.667969 243.730469 10.667969 266.667969 69.945312-117.328126 18.085938-223.472656zm0 0" fill="#f7f0eb"/><path d="m249.941406 3.175781c-3.324218 1.46875-81.335937 36.738281-81.394531 107.429688l-.578125 59.492187 18.085938 223.472656 69.945312 117.328126v-510.398438zm0 0" fill="#fff5f5"/><path d="m256 99.695312-10.667969 16.535157 10.667969 13.480469c8.242188 0 16.488281 2.394531 23.679688 7.191406l16.640624-24.960938c-12.246093-8.164062-26.285156-12.246094-40.320312-12.246094zm0 0" fill="#12b0ff"/><path d="m215.679688 111.941406 16.640624 24.960938c7.191407-4.796875 15.4375-7.191406 23.679688-7.191406v-30.015626c-14.035156 0-28.074219 4.082032-40.320312 12.246094zm0 0" fill="#36cff5"/></svg>