<svg height="512pt" viewBox="0 0 512 512.001" width="512pt" xmlns="http://www.w3.org/2000/svg"><path d="m241.003906 0h30v89.246094h-30zm0 0" fill="#07485e"/><path d="m166.949219 45.417969c-.105469 0-.210938 0-.316407 0-44.496093.082031-86.386718 17.617187-117.953124 49.378906-31.578126 31.765625-48.863282 73.769531-48.67578175 118.277344.14062475 33.300781 10.05859375 65.417969 28.69140575 92.886719 12.238282 18.046874 18.632813 38.789062 18.492188 59.988281-.003906.496093-.003906.996093-.003906 1.480469.128906 38.621093 15.398437 74.976562 42.996094 102.359374 27.449218 27.238282 63.671874 42.210938 102.066406 42.210938h.65625c21.898437-.097656 43.542968-5.171875 63.097656-14.742188v-426.121093c-26.640625-16.863281-57.203125-25.71875-89.050781-25.71875zm0 0" fill="#ff6c6c"/><path d="m512 213.074219c.078125-19.113281-3.105469-37.941407-9.476562-55.960938l-4.703126-13.308593s-52.464843 34.050781-79.390624 7.125c-26.929688-26.929688 10.941406-83.210938 10.941406-83.210938l-12.734375-6.089844c-22.402344-10.710937-46.378907-16.164062-71.265625-16.210937-31.933594-.019531-62.640625 8.800781-89.371094 25.71875v426.125c19.558594 9.566406 41.207031 14.640625 63.105469 14.738281h.648437c38.394532 0 74.625-14.976562 102.070313-42.214844 27.597656-27.382812 42.863281-63.738281 42.992187-102.378906 0-.484375 0-.96875-.003906-1.453125-.140625-21.203125 6.253906-41.945313 18.492188-59.992187 18.632812-27.464844 28.554687-59.585938 28.695312-92.886719zm0 0" fill="#d10050"/><path d="m401.65625 167.699219c19.957031 19.957031 52.3125 19.957031 72.269531 0l23.894531-23.894531-13.570312 3.886718c-17.496094 5.015625-36.351562.148438-49.195312-12.699218-14.246094-14.246094-18.5625-35.519532-10.988282-54.191407l5.304688-13.082031-27.710938 27.714844c-19.957031 19.953125-19.957031 52.308594-.003906 72.265625zm0 0" fill="#f3e5cb"/></svg>